<svg xmlns="http://www.w3.org/2000/svg" width="960" height="320" viewBox="0 0 960 320" role="img" aria-labelledby="title desc">
  <title id="title">tmux-mas logo</title>
  <desc id="desc">tmux Multi Agents System wordmark with a Santa hat, nicknamed tmuxmas.</desc>
  <rect width="960" height="320" rx="28" fill="#101820"/>
  <g transform="translate(80 80)">
    <rect x="0" y="40" width="196" height="132" rx="18" fill="#1f2937" stroke="#7dd3fc" stroke-width="6"/>
    <circle cx="42" cy="86" r="10" fill="#22c55e"/>
    <path d="M70 84h74M70 124h96" stroke="#e5e7eb" stroke-width="12" stroke-linecap="round"/>
    <path d="M18 44C54-12 110-36 164 20c14 14 26 31 36 50l-30 18c-10-18-21-32-34-42C99 17 60 34 40 68z" fill="#e11d48"/>
    <path d="M32 66c46-23 95-25 148 22" fill="none" stroke="#fff7ed" stroke-width="18" stroke-linecap="round"/>
    <circle cx="206" cy="78" r="20" fill="#fff7ed"/>
  </g>
  <text x="330" y="143" fill="#f8fafc" font-family="ui-monospace, SFMono-Regular, Menlo, Consolas, monospace" font-size="72" font-weight="800">tmux-mas</text>
  <text x="334" y="198" fill="#93c5fd" font-family="ui-monospace, SFMono-Regular, Menlo, Consolas, monospace" font-size="26">tmux Multi Agents System</text>
  <text x="334" y="238" fill="#fca5a5" font-family="ui-monospace, SFMono-Regular, Menlo, Consolas, monospace" font-size="22">aka tmuxmas: agent teams in a terminal.</text>
</svg>
